<svg aria-hidden="true" style="position: absolute; width: 0; height: 0; overflow: hidden;" version="1.1" xmlns="http://www.w3.org/2000/svg" xmlns:xlink="http://www.w3.org/1999/xlink">
<defs>
<symbol id="cart" viewBox="0 0 17 17" >
<path d="M2.60593 2H0V0H4.39407L4.84288 4H16V9.93845L3.76941 12.3694L2.60593 2ZM15.5 17C14.6716 17 14 16.3284 14 15.5C14 14.6716 14.6716 14 15.5 14C16.3284 14 17 14.6716 17 15.5C17 16.3284 16.3284 17 15.5 17ZM5.5 17C4.67157 17 4 16.3284 4 15.5C4 14.6716 4.67157 14 5.5 14C6.32843 14 7 14.6716 7 15.5C7 16.3284 6.32843 17 5.5 17Z" />
</symbol>

<symbol id="linkedin" viewBox="0 0 13 13" >
<path d="M3.10938 13V4.82422H0.566406V13H3.10938ZM1.82422 3.73047C2.64453 3.73047 3.30078 3.04688 3.30078 2.22656C3.30078 1.43359 2.64453 0.777344 1.82422 0.777344C1.03125 0.777344 0.375 1.43359 0.375 2.22656C0.375 3.04688 1.03125 3.73047 1.82422 3.73047ZM12.5977 13H12.625V8.51562C12.625 6.32812 12.1328 4.63281 9.5625 4.63281C8.33203 4.63281 7.51172 5.31641 7.15625 5.94531H7.12891V4.82422H4.69531V13H7.23828V8.95312C7.23828 7.88672 7.42969 6.875 8.74219 6.875C10.0547 6.875 10.082 8.07812 10.082 9.03516V13H12.5977Z" />
</symbol>

<symbol id="logo" viewBox="0 0 25 28" >
<path d="M3.56348 22.4H24.5V0H3.5057C1.57228 0.00642 0.00635613 1.58725 0 3.53908V24.1646H0.00057783C0.00057783 24.1733 0 24.1821 0 24.1908C0 26.2558 1.60521 28 3.5057 28H24.5V26.1333H3.5057C2.63895 26.1333 1.84906 25.2076 1.84906 24.1908C1.84906 23.2202 2.63433 22.4 3.56348 22.4ZM5.54717 1.88592H11.0943V11.9671L8.29764 9.4885L5.54717 11.9525V1.88592ZM1.84906 3.55367C1.84617 2.62617 2.58695 1.87192 3.5057 1.86667H3.69811H5.54717H3.69811V14.4667H5.52637L8.30458 11.9782L11.1117 14.4667H12.9434V1.86667H22.6509V20.5333H5.55179H3.70274H3.56348C2.96196 20.5333 2.37141 20.692 1.84963 20.993V3.55367H1.84906Z" fill="#FFCA42"/>
</symbol>

<symbol id="twitter" viewBox="0 0 14 12">
<path d="M12.5508 2.90625C13.0977 2.49609 13.5898 2.00391 13.9727 1.42969C13.4805 1.64844 12.9062 1.8125 12.332 1.86719C12.9336 1.51172 13.3711 0.964844 13.5898 0.28125C13.043 0.609375 12.4141 0.855469 11.7852 0.992188C11.2383 0.417969 10.5 0.0898438 9.67969 0.0898438C8.09375 0.0898438 6.80859 1.375 6.80859 2.96094C6.80859 3.17969 6.83594 3.39844 6.89062 3.61719C4.51172 3.48047 2.37891 2.33203 0.957031 0.609375C0.710938 1.01953 0.574219 1.51172 0.574219 2.05859C0.574219 3.04297 1.06641 3.91797 1.85938 4.4375C1.39453 4.41016 0.929688 4.30078 0.546875 4.08203V4.10938C0.546875 5.50391 1.53125 6.65234 2.84375 6.92578C2.625 6.98047 2.35156 7.03516 2.10547 7.03516C1.91406 7.03516 1.75 7.00781 1.55859 6.98047C1.91406 8.12891 2.98047 8.94922 4.23828 8.97656C3.25391 9.74219 2.02344 10.207 0.683594 10.207C0.4375 10.207 0.21875 10.1797 0 10.1523C1.25781 10.9727 2.76172 11.4375 4.40234 11.4375C9.67969 11.4375 12.5508 7.08984 12.5508 3.28906C12.5508 3.15234 12.5508 3.04297 12.5508 2.90625Z" />
</symbol>

<symbol id="instagram" viewBox="0 0 17 18" >
<path d="M8.5 4.60742C6.125 4.60742 4.23242 6.53711 4.23242 8.875C4.23242 11.25 6.125 13.1426 8.5 13.1426C10.8379 13.1426 12.7676 11.25 12.7676 8.875C12.7676 6.53711 10.8379 4.60742 8.5 4.60742ZM8.5 11.6582C6.97852 11.6582 5.7168 10.4336 5.7168 8.875C5.7168 7.35352 6.94141 6.12891 8.5 6.12891C10.0215 6.12891 11.2461 7.35352 11.2461 8.875C11.2461 10.4336 10.0215 11.6582 8.5 11.6582ZM13.918 4.45898C13.918 3.90234 13.4727 3.45703 12.916 3.45703C12.3594 3.45703 11.9141 3.90234 11.9141 4.45898C11.9141 5.01562 12.3594 5.46094 12.916 5.46094C13.4727 5.46094 13.918 5.01562 13.918 4.45898ZM16.7383 5.46094C16.6641 4.125 16.3672 2.9375 15.4023 1.97266C14.4375 1.00781 13.25 0.710938 11.9141 0.636719C10.541 0.5625 6.42188 0.5625 5.04883 0.636719C3.71289 0.710938 2.5625 1.00781 1.56055 1.97266C0.595703 2.9375 0.298828 4.125 0.224609 5.46094C0.150391 6.83398 0.150391 10.9531 0.224609 12.3262C0.298828 13.6621 0.595703 14.8125 1.56055 15.8145C2.5625 16.7793 3.71289 17.0762 5.04883 17.1504C6.42188 17.2246 10.541 17.2246 11.9141 17.1504C13.25 17.0762 14.4375 16.7793 15.4023 15.8145C16.3672 14.8125 16.6641 13.6621 16.7383 12.3262C16.8125 10.9531 16.8125 6.83398 16.7383 5.46094ZM14.957 13.7734C14.6973 14.5156 14.1035 15.0723 13.3984 15.3691C12.2852 15.8145 9.6875 15.7031 8.5 15.7031C7.27539 15.7031 4.67773 15.8145 3.60156 15.3691C2.85938 15.0723 2.30273 14.5156 2.00586 13.7734C1.56055 12.6973 1.67188 10.0996 1.67188 8.875C1.67188 7.6875 1.56055 5.08984 2.00586 3.97656C2.30273 3.27148 2.85938 2.71484 3.60156 2.41797C4.67773 1.97266 7.27539 2.08398 8.5 2.08398C9.6875 2.08398 12.2852 1.97266 13.3984 2.41797C14.1035 2.67773 14.6602 3.27148 14.957 3.97656C15.4023 5.08984 15.291 7.6875 15.291 8.875C15.291 10.0996 15.4023 12.6973 14.957 13.7734Z" fill="white"/>
</symbol>

<symbol id="facebook" viewBox="0 0 9 15" >
<path d="M7.75391 8.625L8.13672 6.10938H5.70312V4.46875C5.70312 3.75781 6.03125 3.10156 7.125 3.10156H8.24609V0.941406C8.24609 0.941406 7.23438 0.75 6.27734 0.75C4.28125 0.75 2.96875 1.98047 2.96875 4.16797V6.10938H0.726562V8.625H2.96875V14.75H5.70312V8.625H7.75391Z" />
</symbol>

<symbol id="book" width="82" height="28" viewBox="0 0 82 28">
<path d="M0.0198975 21V0.63636H8.054C9.5985 0.63636 10.9143 0.93134 12.0014 1.52131C13.0885 2.10464 13.9171 2.91667 14.4872 3.9574C15.0639 4.9915 15.3523 6.1847 15.3523 7.5369C15.3523 8.8892 15.0606 10.0824 14.4773 11.1165C13.8939 12.1506 13.0488 12.956 11.9418 13.5327C10.8414 14.1094 9.509 14.3977 7.9446 14.3977H2.82389V10.9474H7.2486C8.0772 10.9474 8.7599 10.8049 9.2969 10.5199C9.8404 10.2282 10.2448 9.8272 10.5099 9.3168C10.7817 8.7997 10.9176 8.2064 10.9176 7.5369C10.9176 6.8608 10.7817 6.2708 10.5099 5.767C10.2448 5.2566 9.8404 4.8622 9.2969 4.5838C8.7533 4.2988 8.0639 4.1562 7.22869 4.1562H4.32529V21H0.0198975ZM22.0142 21.2884C21.0398 21.2884 20.1714 21.1193 19.4091 20.7812C18.6468 20.4366 18.0436 19.9295 17.5994 19.2599C17.1619 18.5838 16.9432 17.742 16.9432 16.7344C16.9432 15.8859 17.099 15.1733 17.4105 14.5966C17.7221 14.0199 18.1463 13.5559 18.6832 13.2045C19.2202 12.8532 19.83 12.5881 20.5128 12.4091C21.2022 12.2301 21.9247 12.1042 22.6804 12.0312C23.5687 11.9384 24.2846 11.8523 24.8281 11.7727C25.3717 11.6866 25.7661 11.5606 26.0114 11.3949C26.2566 11.2292 26.3793 10.9839 26.3793 10.6591V10.5994C26.3793 9.9697 26.1804 9.4825 25.7827 9.1378C25.3916 8.7931 24.8348 8.6207 24.1122 8.6207C23.3499 8.6207 22.7434 8.7898 22.2926 9.1278C21.8419 9.4593 21.5436 9.8769 21.3977 10.3807L17.4801 10.0625C17.679 9.1345 18.0701 8.3324 18.6534 7.6562C19.2367 6.9735 19.9891 6.4498 20.9105 6.0852C21.8385 5.714 22.9124 5.5284 24.1321 5.5284C24.9806 5.5284 25.7926 5.6278 26.5682 5.8267C27.3504 6.0256 28.0431 6.3338 28.6463 6.7514C29.2562 7.169 29.7367 7.706 30.0881 8.3622C30.4394 9.0118 30.6151 9.7907 30.6151 10.6989V21H26.598V18.8821H26.4787C26.2334 19.3594 25.9053 19.7803 25.4943 20.1449C25.0833 20.5028 24.5895 20.7846 24.0128 20.9901C23.4361 21.1889 22.7699 21.2884 22.0142 21.2884ZM23.2273 18.3651C23.8504 18.3651 24.4006 18.2424 24.8778 17.9972C25.3551 17.7453 25.7296 17.4072 26.0014 16.983C26.2732 16.5587 26.4091 16.0781 26.4091 15.5412V13.9205C26.2765 14.0066 26.0942 14.0862 25.8622 14.1591C25.6368 14.2254 25.3816 14.2884 25.0966 14.348C24.8116 14.401 24.5265 14.4508 24.2415 14.4972C23.9564 14.5369 23.6979 14.5734 23.4659 14.6065C22.9688 14.6795 22.5346 14.7955 22.1634 14.9545C21.7921 15.1136 21.5038 15.3291 21.2983 15.6009C21.0928 15.866 20.9901 16.1974 20.9901 16.5952C20.9901 17.1719 21.1989 17.6127 21.6165 17.9176C22.0407 18.2159 22.5777 18.3651 23.2273 18.3651ZM40.782 27.0455C39.4098 27.0455 38.2332 26.8565 37.2521 26.4787C36.2777 26.1075 35.5021 25.6004 34.9254 24.9574C34.3487 24.3144 33.9742 23.5919 33.8018 22.7898L37.7195 22.2628C37.8388 22.5677 38.0277 22.8527 38.2862 23.1179C38.5447 23.383 38.8861 23.5952 39.3104 23.7543C39.7412 23.92 40.2649 24.0028 40.8814 24.0028C41.8028 24.0028 42.5618 23.7775 43.1584 23.3267C43.7616 22.8826 44.0632 22.1368 44.0632 21.0895V18.2955H43.8842C43.6986 18.7197 43.4202 19.1207 43.049 19.4986C42.6778 19.8764 42.2005 20.1847 41.6172 20.4233C41.0339 20.6619 40.3378 20.7812 39.5291 20.7812C38.3823 20.7812 37.3383 20.5161 36.397 19.9858C35.4624 19.4489 34.7166 18.6302 34.1598 17.5298C33.6096 16.4228 33.3345 15.0241 33.3345 13.3338C33.3345 11.6037 33.6162 10.1586 34.1797 8.9986C34.7431 7.8385 35.4922 6.9702 36.4268 6.3935C37.3681 5.8168 38.3989 5.5284 39.5192 5.5284C40.3743 5.5284 41.0902 5.6742 41.6669 5.9659C42.2436 6.2509 42.7076 6.6089 43.0589 7.0398C43.4169 7.464 43.692 7.8816 43.8842 8.2926H44.0433V5.7273H48.2493V21.1491C48.2493 22.4484 47.9311 23.5355 47.2947 24.4105C46.6584 25.2855 45.7768 25.9418 44.6499 26.3793C43.5296 26.8234 42.2403 27.0455 40.782 27.0455ZM40.8714 17.5994C41.5542 17.5994 42.1309 17.4304 42.6016 17.0923C43.0788 16.7476 43.4434 16.2571 43.6953 15.6207C43.9538 14.9777 44.0831 14.2088 44.0831 13.3139C44.0831 12.419 43.9571 11.6435 43.7053 10.9872C43.4534 10.3243 43.0888 9.8106 42.6115 9.446C42.1342 9.0814 41.5542 8.8991 40.8714 8.8991C40.1754 8.8991 39.5888 9.0881 39.1115 9.4659C38.6342 9.8371 38.273 10.3542 38.0277 11.017C37.7824 11.6799 37.6598 12.4455 37.6598 13.3139C37.6598 14.1955 37.7824 14.9579 38.0277 15.6009C38.2796 16.2372 38.6409 16.7311 39.1115 17.0824C39.5888 17.4271 40.1754 17.5994 40.8714 17.5994ZM58.5803 21.2983C57.0092 21.2983 55.657 20.9801 54.5234 20.3438C53.3965 19.7008 52.5282 18.7926 51.9183 17.6193C51.3085 16.4394 51.0036 15.044 51.0036 13.4332C51.0036 11.8622 51.3085 10.4834 51.9183 9.2969C52.5282 8.1103 53.3866 7.1856 54.4936 6.5227C55.6072 5.8598 56.9131 5.5284 58.4112 5.5284C59.4188 5.5284 60.3568 5.6908 61.2251 6.0156C62.1001 6.3338 62.8625 6.8144 63.5121 7.4574C64.1683 8.1004 64.6787 8.9091 65.043 9.8835C65.408 10.8513 65.59 11.9848 65.59 13.2841V14.4474H52.6939V11.8224H61.603C61.603 11.2126 61.4704 10.6723 61.2053 10.2017C60.9401 9.7311 60.5722 9.3632 60.1016 9.098C59.6375 8.8262 59.0973 8.6903 58.4808 8.6903C57.8378 8.6903 57.2678 8.8395 56.7706 9.1378C56.2801 9.4295 55.8956 9.8239 55.6172 10.321C55.3388 10.8116 55.1963 11.3584 55.1896 11.9616V14.4574C55.1896 15.2131 55.3288 15.866 55.6072 16.4162C55.8923 16.9664 56.2933 17.3906 56.8104 17.6889C57.3274 17.9872 57.9406 18.1364 58.6499 18.1364C59.1205 18.1364 59.5514 18.0701 59.9425 17.9375C60.3336 17.8049 60.6683 17.6061 60.9467 17.3409C61.2251 17.0758 61.4373 16.7509 61.5831 16.3665L65.501 16.625C65.302 17.5663 64.8942 18.3883 64.2777 19.0909C63.6679 19.7869 62.879 20.3305 61.9112 20.7216C60.95 21.1061 59.8397 21.2983 58.5803 21.2983ZM81.062 10.0824L77.184 10.321C77.118 9.9896 76.975 9.6913 76.756 9.4261C76.538 9.1544 76.249 8.9389 75.891 8.7798C75.54 8.6141 75.119 8.5312 74.629 8.5312C73.972 8.5312 73.419 8.6705 72.968 8.9489C72.517 9.2206 72.292 9.5852 72.292 10.0426C72.292 10.4072 72.438 10.7154 72.729 10.9673C73.021 11.2192 73.522 11.4214 74.231 11.5739L76.995 12.1307C78.48 12.4356 79.587 12.9261 80.316 13.6023C81.045 14.2784 81.41 15.1667 81.41 16.267C81.41 17.268 81.115 18.1463 80.525 18.902C79.942 19.6577 79.139 20.2476 78.119 20.6719C77.104 21.0895 75.934 21.2983 74.609 21.2983C72.587 21.2983 70.976 20.8774 69.776 20.0355C68.583 19.187 67.884 18.0336 67.678 16.5753L71.844 16.3565C71.97 16.973 72.275 17.4437 72.759 17.7685C73.243 18.0866 73.863 18.2457 74.619 18.2457C75.361 18.2457 75.958 18.1032 76.408 17.8182C76.866 17.5265 77.098 17.152 77.104 16.6946C77.098 16.3101 76.935 15.9953 76.617 15.75C76.299 15.4981 75.808 15.3059 75.146 15.1733L72.501 14.6463C71.009 14.348 69.899 13.831 69.17 13.0952C68.447 12.3594 68.086 11.4214 68.086 10.2812C68.086 9.3002 68.351 8.455 68.881 7.7457C69.418 7.0365 70.171 6.4896 71.138 6.1051C72.113 5.7206 73.253 5.5284 74.559 5.5284C76.488 5.5284 78.006 5.9361 79.113 6.7514C80.227 7.5668 80.876 8.6771 81.062 10.0824Z" fill="#F5F8FC"/>
</symbol>

<symbol id="dots5"  viewBox="0 0 76 13">

            <path d="M69.6666 12.1667C72.8882 12.1667 75.4999 9.55499 75.4999 6.33333C75.4999 3.11167 72.8882 0.5 69.6666 0.5C66.4449 0.5 63.8333 3.11167 63.8333 6.33333C63.8333 9.55499 66.4449 12.1667 69.6666 12.1667Z" stroke="#FFCA42" fill="transparent" />
<path d="M53.8333 12.6667C57.3311 12.6667 60.1667 9.83113 60.1667 6.33333C60.1667 2.83553 57.3311 0 53.8333 0C50.3355 0 47.5 2.83553 47.5 6.33333C47.5 9.83113 50.3355 12.6667 53.8333 12.6667Z" fill="#FFCA42"/>
<path d="M38.0001 12.6667C41.4979 12.6667 44.3334 9.83113 44.3334 6.33333C44.3334 2.83553 41.4979 0 38.0001 0C34.5023 0 31.6667 2.83553 31.6667 6.33333C31.6667 9.83113 34.5023 12.6667 38.0001 12.6667Z" fill="#FFCA42"/>
<path d="M22.1666 12.6667C25.6644 12.6667 28.4999 9.83113 28.4999 6.33333C28.4999 2.83553 25.6644 0 22.1666 0C18.6688 0 15.8333 2.83553 15.8333 6.33333C15.8333 9.83113 18.6688 12.6667 22.1666 12.6667Z" fill="#FFCA42"/>
<path d="M6.33333 12.6667C9.83113 12.6667 12.6667 9.83113 12.6667 6.33333C12.6667 2.83553 9.83113 0 6.33333 0C2.83553 0 0 2.83553 0 6.33333C0 9.83113 2.83553 12.6667 6.33333 12.6667Z" fill="#FFCA42"/>
    

</symbol>

<symbol id="dots4"  viewBox="0 0 76 13"><path d="M69.6666 12.1667C72.8882 12.1667 75.4999 9.55499 75.4999 6.33333C75.4999 3.11167 72.8882 0.5 69.6666 0.5C66.4449 0.5 63.8333 3.11167 63.8333 6.33333C63.8333 9.55499 66.4449 12.1667 69.6666 12.1667Z" stroke="#FFCA42" fill="transparent"/>

<path d="M69.6666 12.1667C72.8882 12.1667 75.4999 9.55499 75.4999 6.33333C75.4999 3.11167 72.8882 0.5 69.6666 0.5C66.4449 0.5 63.8333 3.11167 63.8333 6.33333C63.8333 9.55499 66.4449 12.1667 69.6666 12.1667Z" stroke="#FFCA42" fill="transparent"/>
<path d="M69.6667 12.6667C68.835 12.6667 68.0114 12.5029 67.243 12.1846C66.4746 11.8663 65.7764 11.3998 65.1883 10.8117C64.6002 10.2236 64.1337 9.52539 63.8154 8.75699C63.4971 7.9886 63.3333 7.16504 63.3333 6.33333C63.3333 5.50163 63.4971 4.67807 63.8154 3.90967C64.1337 3.14128 64.6002 2.44309 65.1883 1.85499C65.7764 1.26689 66.4746 0.800375 67.243 0.482096C68.0114 0.163816 68.835 -1.09065e-07 69.6667 0V6.33333V12.6667Z" fill="#FFCA42"/>
<path d="M53.8333 12.6667C57.3311 12.6667 60.1667 9.83113 60.1667 6.33333C60.1667 2.83553 57.3311 0 53.8333 0C50.3355 0 47.5 2.83553 47.5 6.33333C47.5 9.83113 50.3355 12.6667 53.8333 12.6667Z" fill="#FFCA42"/>
<path d="M38.0001 12.6667C41.4979 12.6667 44.3334 9.83113 44.3334 6.33333C44.3334 2.83553 41.4979 0 38.0001 0C34.5023 0 31.6667 2.83553 31.6667 6.33333C31.6667 9.83113 34.5023 12.6667 38.0001 12.6667Z" fill="#FFCA42"/>
<path d="M22.1666 12.6667C25.6644 12.6667 28.4999 9.83113 28.4999 6.33333C28.4999 2.83553 25.6644 0 22.1666 0C18.6688 0 15.8333 2.83553 15.8333 6.33333C15.8333 9.83113 18.6688 12.6667 22.1666 12.6667Z" fill="#FFCA42"/>
<path d="M6.33333 12.6667C9.83113 12.6667 12.6667 9.83113 12.6667 6.33333C12.6667 2.83553 9.83113 0 6.33333 0C2.83553 0 0 2.83553 0 6.33333C0 9.83113 2.83553 12.6667 6.33333 12.6667Z" fill="#FFCA42"/>

</symbol>

</defs>
</svg>